<svg xmlns="http://www.w3.org/2000/svg" xmlns:xlink="http://www.w3.org/1999/xlink" width="360" height="760" viewBox="0 0 360 760">
  <defs>
    <clipPath id="clip-path">
      <rect id="Rectangle_5" data-name="Rectangle 5" width="222" height="150" transform="translate(69 147)" fill="#bcbcbc" stroke="#707070" stroke-width="1"/>
    </clipPath>
    <clipPath id="clip-Samsung_Galaxy_S10_2">
      <rect width="360" height="760"/>
    </clipPath>
  </defs>
  <g id="Samsung_Galaxy_S10_2" data-name="Samsung Galaxy S10 – 2" clip-path="url(#clip-Samsung_Galaxy_S10_2)">
    <rect width="360" height="760" fill="#ebebeb"/>
    <path id="Path_55" data-name="Path 55" d="M1520.172,428.13c-124.1,115.409-117.891,187.385-187.385,222.131S1121.825,775.6,1121.825,775.6" transform="translate(-1134 -283)" fill="none" stroke="#b2a10c" stroke-width="3"/>
    <path id="Path_54" data-name="Path 54" d="M1206.445,473.62l-38.918,103.535,42.589-28.637,50.666-27.169-110.144-8.077,93.99,55.806Z" transform="translate(-1044.857 -176.809) rotate(8)" fill="none" stroke="#af9e00" stroke-width="4"/>
    <g id="Mask_Group_2" data-name="Mask Group 2" transform="translate(0 -38)" clip-path="url(#clip-path)">
      <g id="unlock" transform="translate(137.99 147)">
        <rect id="Rectangle_7" data-name="Rectangle 7" width="73.593" height="134.093" rx="13.258" transform="translate(1.242)" fill="#3f3d56"/>
        <path id="Path_25" data-name="Path 25" d="M167.03,39.844V147.421a12.03,12.03,0,0,1-12.016,12.016H107.937A12.03,12.03,0,0,1,95.92,147.421V39.844a12.03,12.03,0,0,1,12.016-12.016h6.156v2.127a3.63,3.63,0,0,0,3.63,3.63c7.97,2.408,17.325,2.032,27.505,0a3.63,3.63,0,0,0,3.63-3.63V27.828h6.156A12.03,12.03,0,0,1,167.03,39.844Z" transform="translate(-93.437 -26.586)" fill="#fff"/>
        <path id="Path_26" data-name="Path 26" d="M94.34,53.788a.9.9,0,0,1-.9-.9V51.079a.9.9,0,0,1,1.806,0v1.806a.9.9,0,0,1-.9.9Z" transform="translate(-93.437 -26.586)" fill="#3f3d56"/>
        <path id="Path_27" data-name="Path 27" d="M94.34,63.048a.9.9,0,0,1-.9-.9V57.174a.9.9,0,0,1,1.806,0v4.971a.9.9,0,0,1-.9.9Z" transform="translate(-93.437 -26.586)" fill="#3f3d56"/>
        <path id="Path_28" data-name="Path 28" d="M94.34,70.493a.9.9,0,0,1-.9-.9V64.619a.9.9,0,0,1,1.806,0V69.59A.9.9,0,0,1,94.34,70.493Z" transform="translate(-93.437 -26.586)" fill="#3f3d56"/>
        <path id="Path_29" data-name="Path 29" d="M168.385,52.495a.9.9,0,0,0-.9.9V65.527a.9.9,0,1,0,1.806,0V53.4A.9.9,0,0,0,168.385,52.495Z" transform="translate(-93.437 -26.586)" fill="#3f3d56"/>
        <path id="Path_30" data-name="Path 30" d="M111.4,33.149h-6.1a1.129,1.129,0,1,1,0-2.257h6.1a1.129,1.129,0,1,1,0,2.257Z" transform="translate(-93.437 -26.586)" fill="#e6e6e6"/>
        <path id="Path_31" data-name="Path 31" d="M146.817,146.169a1.866,1.866,0,0,1-1.352-3.234l.128-.508-.051-.122c-1.718-4.1-5.2-1.8-9.243.034-3.338,1.51-6.7,3.477-3.91,11.137.586,1.609-.117,3.43.26,5.1a59.429,59.429,0,0,1-5.406-24.683,57.362,57.362,0,0,1,.356-6.4q.295-2.613.818-5.188a60.4,60.4,0,0,1,8.108-20.135q-.744.01-1.49.016-1.343,2.193-2.5,4.49a22.631,22.631,0,0,0,.087-4.481c-6.034,0-12.064-.2-17.4-.579.2,16.339,6.234,19.746,13.63,11.921.207.106.409.212.616.313a61.761,61.761,0,0,0-3.324,15.645,58.572,58.572,0,0,0,.042,9.458l-.016-.111a15.478,15.478,0,0,0-5.284-8.937c-4.066-3.34-9.811-4.57-14.2-7.255a2.9,2.9,0,0,0-4.449,2.826l.018.117a17.009,17.009,0,0,1,1.906.919q.529.3,1.035.633a2.531,2.531,0,0,1-1.02,4.606l-.052.008-.106.016a25.2,25.2,0,0,0,4.636,7.259c.544,16.782,9.373,14.618,18.82,8.258h.005a61.74,61.74,0,0,0,4.147,12.108h14.816c.053-.165.1-.335.149-.5a16.836,16.836,0,0,1-4.1-.244c1.1-1.349,2.2-2.708,3.3-4.057a.921.921,0,0,0,.069-.08c.558-.69,1.121-1.375,1.678-2.066h0a24.658,24.658,0,0,0-.723-6.281Z" transform="translate(-93.437 -26.586)" fill="#3268b8"/>
        <path id="Path_32" data-name="Path 32" d="M131.029,94.993c-1.437-3.467-4.131-6.388-6.5-9.385a5.163,5.163,0,0,0-9.2,2.535q-.007.066-.014.133.529.3,1.035.633a2.531,2.531,0,0,1-1.02,4.606l-.052.008a25.182,25.182,0,0,0,.664,3.765,22.851,22.851,0,0,0-.72,4.329c5.331.384,11.361.577,17.4.579A24.3,24.3,0,0,0,131.029,94.993Z" transform="translate(-93.437 -26.586)" fill="#e6e6e6"/>
        <path id="Path_33" data-name="Path 33" d="M146.541,90.6a12.2,12.2,0,0,0,1.11-3.335c-.324.042-1.221-4.891-.977-5.194-.451-.685-1.259-1.026-1.752-1.694-2.452-3.325-5.83-2.744-7.594,1.774-3.767,1.9-3.8,5.055-1.492,8.088,1.471,1.93,1.673,4.54,2.963,6.606-.133.17-.271.335-.4.5a59.513,59.513,0,0,0-3.812,5.515q.746-.006,1.49-.016a58.545,58.545,0,0,1,3.814-5.345,16,16,0,0,0,6.654-6.9Z" transform="translate(-93.437 -26.586)" fill="#e6e6e6"/>
        <path id="Path_34" data-name="Path 34" d="M166.881,39.8V97.257c0,6.626-71.11,6.626-71.11,0V39.8a12.03,12.03,0,0,1,12.016-12.016h6.156v2.127a3.63,3.63,0,0,0,3.63,3.63c7.632,2.4,17.053,2,27.505,0a3.63,3.63,0,0,0,3.63-3.63V27.779h6.156A12.03,12.03,0,0,1,166.881,39.8Z" transform="translate(-93.437 -26.586)" opacity="0.1"/>
        <path id="Path_35" data-name="Path 35" d="M138.088,46h-2.032a2.938,2.938,0,0,0-2.935,2.935V51.2h-3.612a2.938,2.938,0,0,0-2.935,2.935v4.515a2.938,2.938,0,0,0,2.935,2.935h4.515a2.938,2.938,0,0,0,2.935-2.935V54.132a2.938,2.938,0,0,0-2.935-2.935h-.451V48.939a2.486,2.486,0,0,1,2.483-2.483h2.032a2.486,2.486,0,0,1,2.483,2.483v2.483h.451V48.939A2.938,2.938,0,0,0,138.088,46Zm-1.58,8.127v4.515a2.486,2.486,0,0,1-2.483,2.483h-4.515a2.486,2.486,0,0,1-2.483-2.483V54.132a2.486,2.486,0,0,1,2.483-2.483,3.957,3.957,0,0,0,4.515,0,2.486,2.486,0,0,1,2.483,2.483Z" transform="translate(-93.437 -26.586)" fill="#fff"/>
        <path id="Path_36" data-name="Path 36" d="M131.767,58.421a2.032,2.032,0,1,0-2.032-2.032,2.032,2.032,0,0,0,2.032,2.032Zm0-2.483c.871,0,1.58-.42,1.58.451a1.58,1.58,0,1,1-3.16,0c0-.871.709-.451,1.58-.451Z" transform="translate(-93.437 -26.586)" fill="#fff"/>
        <circle id="Ellipse_4" data-name="Ellipse 4" cx="0.677" cy="0.677" r="0.677" transform="translate(37.652 29.126)" fill="#fff"/>
        <rect id="Rectangle_8" data-name="Rectangle 8" width="1.628" height="0.451" transform="translate(74.223 32.512)" fill="#fff"/>
        <path id="Path_37" data-name="Path 37" d="M95.873,96.132v1.129c0,6.626,71.11,6.626,71.11,0V96.132C166.983,102.758,95.873,102.758,95.873,96.132Z" transform="translate(-93.437 -26.586)" opacity="0.1"/>
        <path id="Path_38" data-name="Path 38" d="M158.682,112.283a1.73,1.73,0,0,0,1.359-1.995,1.661,1.661,0,0,0-.074-.264l4.625-3.879-1.142-3.039-5.762,6a1.726,1.726,0,0,0-.976,1.867,1.651,1.651,0,0,0,1.926,1.321h0Z" transform="translate(-93.437 -26.586)" fill="#a0616a"/>
        <path id="Path_39" data-name="Path 39" d="M160.86,89.394l-1.834,1.463s-2.192,3.985-.621,4.812,6.456,3.575,6.456,3.575-2.019,2.01-2.257,2.986.289,1.843-.548,1.639-.86.461-1.065,1.3-1.565,1.607-1.565,1.607l2.6,1.919s1.2.425,1.3-.585-.175-.868.661-.663,1.542-1.105,1.987-2.326,4.992-6.9,4.992-6.9l-4.757-5.293a12.641,12.641,0,0,0-5.354-3.526Z" transform="translate(-93.437 -26.586)" fill="#3268b8"/>
        <path id="Path_40" data-name="Path 40" d="M67,145.758l-1.894-.016-.838-7.475,2.795.024Z" fill="#a0616a"/>
        <path id="Path_41" data-name="Path 41" d="M154.376,175.355a.848.848,0,0,0,.839.854l3.765.031.659-1.336.242,1.343,1.421.013-.359-4.79-.494-.033-2.016-.139-.65-.044-.011,1.355-3.025,2.051a.846.846,0,0,0-.371.693Z" transform="translate(-93.437 -26.586)" fill="#2f2e41"/>
        <path id="Path_42" data-name="Path 42" d="M49.619,145.758l-1.894-.016-.838-7.475,2.795.024Z" fill="#a0616a"/>
        <path id="Path_43" data-name="Path 43" d="M136.99,175.355a.848.848,0,0,0,.839.854l3.765.031.659-1.336.242,1.343,1.421.013-.359-4.79-.494-.033-2.016-.139-.65-.044-.011,1.355-3.025,2.051A.846.846,0,0,0,136.99,175.355Z" transform="translate(-93.437 -26.586)" fill="#2f2e41"/>
        <path id="Path_44" data-name="Path 44" d="M147.955,109.048s-3.636,1.791-2.688,2.87.169,1.688-1.013,2.7-3.56,12.877-3.56,12.877l-3.08,18.378s.817,16.047,1.366,16.618,1.392-.272.548.572-1.519.169-.844.844a5.329,5.329,0,0,1,.844,2.532l4.374-.369s2.847-12.335.924-17.8l7.543-19.989,2.28,19.287s1.252,15.662,2.1,16.168,1.452.541.726,1.2-.726-.355-.726.658v1.68l4.083.56s1.9-15.015,1.017-21.962l2.665-23.321-2.076-10.509-2.144-2.826Z" transform="translate(-93.437 -26.586)" fill="#2f2e41"/>
        <path id="Path_45" data-name="Path 45" d="M130.408,103.364a1.73,1.73,0,0,0,2.389-.339,1.66,1.66,0,0,0,.146-.233l5.982.806,1.477-2.892-8.315-.218a1.726,1.726,0,0,0-2.037.536,1.651,1.651,0,0,0,.321,2.313h0Z" transform="translate(-93.437 -26.586)" fill="#a0616a"/>
        <path id="Path_46" data-name="Path 46" d="M148.792,89.556l-2.317-.37s-2.78,1.518-2.333,3.236.064,6.726.064,6.726-2.845-.138-3.727.343-1.168,1.455-1.58.7.022-1.157-.733-.744a15.232,15.232,0,0,1-3.184.757l-.976,3.324s1.356,1.865,2.169,1.258.973-1.512,1.386-.757.528,2.165,1.73,1.672,9.793-2.73,9.793-2.73l1.038-10.378Z" transform="translate(-93.437 -26.586)" fill="#3268b8"/>
        <path id="Path_47" data-name="Path 47" d="M146.531,111.61s-1.636-2.61-1.324-2.993.7.279,0-.39,3.232-5.129,3.49-5.786-3.937-12.13-3.937-12.13l3.573-2.152,3.02-4.249,5.4.864,1.9,3.852,2.684.947.226.226v7s1.195,5.973-1.434,8.03c0,0,1.254,2.732.916,3.238s5.732,7.16.969,7.92C156.8,116.819,145.669,111.315,146.531,111.61Z" transform="translate(-93.437 -26.586)" fill="#3268b8"/>
        <path id="Path_48" data-name="Path 48" d="M119.742,176.317a.268.268,0,0,0,.269.269H177.19a.269.269,0,0,0,0-.537H120.01a.268.268,0,0,0-.269.269Z" transform="translate(-93.437 -26.586)" fill="#ccc"/>
        <circle id="Ellipse_5" data-name="Ellipse 5" cx="5.5" cy="5.5" r="5.5" transform="translate(55.913 47.389)" fill="#a0616a"/>
        <path id="Path_49" data-name="Path 49" d="M159.1,75.408a5,5,0,0,0-.632-1.545,1.344,1.344,0,0,0-1.189-.767,1.268,1.268,0,0,0-.972.66,2.659,2.659,0,0,0-.3,1.174,6.15,6.15,0,0,0,2,4.9,2.218,2.218,0,0,0,1.367.665,1.763,1.763,0,0,0,1.249-.562,3.113,3.113,0,0,0,.517-3.317,3.345,3.345,0,0,0-1.67-2.125" transform="translate(-93.437 -26.586)" fill="#2f2e41"/>
        <path id="Path_50" data-name="Path 50" d="M151.374,83.318c.092.489-.754,2.816-.484,3.236a24.454,24.454,0,0,0,3.871,1.042,5.682,5.682,0,0,0,3.583-1.26,2.746,2.746,0,0,1,.37-1.244,1.664,1.664,0,0,0,.173.85c4.582-1.138,3.46-5.25.693-7.176l-1.84-4.231c.552.184-1.114-2.658-2.871-.6-2.2-2.239-6.457.984-6.99,3.863.513-.65.781-.573.913-.125a2.534,2.534,0,0,1,.7-.977,2.118,2.118,0,0,0-.228.977c3.468.215,2.822,2.555-.02,6.059,1.051-.654.342,2.165.9,2.839C150.172,86.1,151.274,83.776,151.374,83.318Z" transform="translate(-93.437 -26.586)" fill="#2f2e41"/>
        <path id="Path_51" data-name="Path 51" d="M156.378,78.813a.184.184,0,0,0,.05-.361,2.228,2.228,0,0,1-.013-.685,3.928,3.928,0,0,0-1.491-3.865.184.184,0,1,0-.21.3,3.568,3.568,0,0,1,1.334,3.541c-.034.572-.058.985.289,1.063a.183.183,0,0,0,.041,0Z" transform="translate(-93.437 -26.586)" fill="#3268b8"/>
        <path id="Path_52" data-name="Path 52" d="M156.292,74.792a10.376,10.376,0,0,1,3.533-.783c.963-.041,2.113.174,2.5,1.055a2.227,2.227,0,0,1-.106,1.7c-.217.543-1.233,1.639-.648,1.627,1.469-.03,2.1,1.283,1.351,3.324-.432,1.184,2.249,1.138,3.5,1.3a11.083,11.083,0,0,1-2.891.784,3.736,3.736,0,0,1-2.81-.8,4.62,4.62,0,0,1-1.254-2.925,15.1,15.1,0,0,0-.509-3.2,2.913,2.913,0,0,0-2.282-2.062" transform="translate(-93.437 -26.586)" fill="#2f2e41"/>
      </g>
    </g>
    <text id="Prijavite_se_na_nalog" data-name="Prijavite se na nalog" transform="translate(76 320)" font-size="20" font-family="Poppins-Bold, Poppins" font-weight="700"><tspan x="0" y="0">Prijavite se na nalog</tspan></text>
    <rect id="Rectangle_2" data-name="Rectangle 2" width="222" height="35" transform="translate(69 397)" fill="#fff"/>
    <rect id="Rectangle_3" data-name="Rectangle 3" width="222" height="35" transform="translate(69 442)" fill="#fff"/>
    <g id="Group_4" data-name="Group 4" transform="translate(0 54)">
      <g id="Rectangle_4" data-name="Rectangle 4" transform="translate(115 448)" fill="#3268b8" stroke="#3268b8" stroke-width="1">
        <rect width="131" height="35" rx="2" stroke="none"/>
        <rect x="0.5" y="0.5" width="130" height="34" rx="1.5" fill="none"/>
      </g>
      <text id="Prijavite_se" data-name="Prijavite se" transform="translate(138 471)" fill="#fff" font-size="16" font-family="Poppins-Regular, Poppins"><tspan x="0" y="0">Prijavite se</tspan></text>
    </g>
    <line id="Line_4" data-name="Line 4" x2="222" transform="translate(69 432)" fill="none" stroke="#707070" stroke-width="1"/>
    <line id="Line_5" data-name="Line 5" x2="222" transform="translate(69 477)" fill="none" stroke="#707070" stroke-width="1"/>
    <text id="sifra" transform="translate(83 465)" fill="#aaa" font-size="16" font-family="Poppins-Regular, Poppins"><tspan x="0" y="0">sifra</tspan></text>
    <text id="Nemate_nalog_Registrujte_se." data-name="Nemate nalog? Registrujte se." transform="translate(61 646)" font-size="16" font-family="Poppins-Regular, Poppins"><tspan x="0" y="0">Nemate nalog? </tspan><tspan y="0" fill="#3268b8" text-decoration="underline">Registrujte se</tspan><tspan y="0">.</tspan></text>
    <text id="mejl" transform="translate(83 420)" fill="#aaa" font-size="16" font-family="Poppins-Regular, Poppins"><tspan x="0" y="0">mejl</tspan></text>
  </g>
</svg>
