<svg xmlns="http://www.w3.org/2000/svg" xmlns:xlink="http://www.w3.org/1999/xlink" width="360" height="760" viewBox="0 0 360 760">
  <defs>
    <clipPath id="clip-path">
      <rect id="Rectangle_5" data-name="Rectangle 5" width="222" height="150" transform="translate(69 66)" fill="#bcbcbc" stroke="#707070" stroke-width="1"/>
    </clipPath>
    <clipPath id="clip-Samsung_Galaxy_S10_1">
      <rect width="360" height="760"/>
    </clipPath>
  </defs>
  <g id="Samsung_Galaxy_S10_1" data-name="Samsung Galaxy S10 – 1" clip-path="url(#clip-Samsung_Galaxy_S10_1)">
    <rect width="360" height="760" fill="#ebebeb"/>
    <path id="Path_53" data-name="Path 53" d="M676.8,598.523c110.732-185.189,413.334-250.1,413.334-250.1s8.591,378.015,0,418.107-241.51,59.184-307.376,129.823-90.685,112.641-70.639,149.869,35.32,42,35.32,42" transform="translate(-704 -283)" fill="none" stroke="#af9e00" stroke-width="2"/>
    <text id="Otvorite_svoj_nalog" data-name="Otvorite svoj nalog" transform="translate(83 308)" font-size="20" font-family="Poppins-Bold, Poppins" font-weight="700"><tspan x="0" y="0">Otvorite svoj nalog</tspan></text>
    <g id="Mask_Group_1" data-name="Mask Group 1" transform="translate(0 31)" clip-path="url(#clip-path)">
      <g id="register" transform="translate(103.034 66)">
        <path id="Path_1" data-name="Path 1" d="M208.384,99h-8.191V168.83a8.343,8.343,0,0,1-8.343,8.343h-62.62v.08a8.343,8.343,0,0,0,8.343,8.343h70.81a8.343,8.343,0,0,0,8.343-8.343V107.344A8.343,8.343,0,0,0,208.384,99Z" transform="translate(-110.202 -65.377)" fill="#f2f2f2"/>
        <path id="Path_2" data-name="Path 2" d="M247.211,209.97a.708.708,0,0,0,.513-1.227l-.049-.193.019-.046a1.9,1.9,0,0,1,3.507.013,16.882,16.882,0,0,1,1.484,4.226,5.624,5.624,0,0,1-.1,1.934,22.548,22.548,0,0,0,2.051-9.365,21.762,21.762,0,0,0-.135-2.428q-.112-.991-.31-1.969a22.81,22.81,0,0,0-4.523-9.667,6.07,6.07,0,0,1-2.525-2.619,4.63,4.63,0,0,1-.421-1.265,5.714,5.714,0,0,0,.371-1.971c.171-.26.478-.389.665-.643.93-1.261,2.212-1.041,2.881.673,1.429.721,1.443,1.918.566,3.069-.558.732-.635,1.723-1.124,2.506.05.064.1.127.153.191a22.958,22.958,0,0,1,2.4,3.8,9.543,9.543,0,0,1,.57-4.433,15.984,15.984,0,0,1,2.468-3.561,1.959,1.959,0,0,1,3.489.962l.005.05q-.2.113-.393.24a.96.96,0,0,0,.387,1.747l.02,0a9.556,9.556,0,0,1-.252,1.429c1.155,4.466-1.338,6.092-4.9,6.165-.079.04-.155.081-.234.119a23.433,23.433,0,0,1,1.261,5.936,22.22,22.22,0,0,1-.016,3.588l.006-.042a5.873,5.873,0,0,1,2-3.391c1.543-1.267,3.722-1.734,5.387-2.753a1.1,1.1,0,0,1,1.688,1.072l-.007.045a6.446,6.446,0,0,0-.723.349q-.2.113-.393.24a.96.96,0,0,0,.387,1.747l.02,0,.04.006a9.562,9.562,0,0,1-1.759,2.754c-.722,3.9-3.823,4.268-7.141,3.133h0a23.423,23.423,0,0,1-1.574,4.594h-5.622c-.02-.062-.038-.127-.056-.189a6.386,6.386,0,0,0,1.555-.093c-.417-.512-.834-1.028-1.251-1.539a.348.348,0,0,1-.026-.03c-.212-.262-.425-.522-.637-.784h0a9.355,9.355,0,0,1,.274-2.383Z" transform="translate(-110.202 -65.377)" fill="#f2f2f2"/>
        <path id="Path_3" data-name="Path 3" d="M185.3,89.5a2.572,2.572,0,0,0,3.889.476l11.687,5.273,2.253-2.874L189.2,86.216a2.569,2.569,0,0,0-3.9,3.286Z" transform="translate(-110.202 -65.377)" fill="#a0616a"/>
        <path id="Path_4" data-name="Path 4" d="M235.452,92.791l1.159,6.568a2.232,2.232,0,0,1-2.023,2.613l-19.7,1.549L191.74,93.159l2.765-5.249,20.1,6.364Z" transform="translate(-110.202 -65.377)" fill="#3268b8"/>
        <rect id="Rectangle_6" data-name="Rectangle 6" width="87.496" height="86.594" rx="8.343" transform="translate(0 22.706)" fill="#f2f2f2"/>
        <path id="Path_5" data-name="Path 5" d="M118.545,89.8a6.627,6.627,0,0,0-6.627,6.627v69.908a6.627,6.627,0,0,0,6.627,6.627h45.193a32.244,32.244,0,0,0,32.244-32.244V96.426a6.627,6.627,0,0,0-6.627-6.627Z" transform="translate(-110.202 -65.377)" fill="#fff"/>
        <path id="Path_6" data-name="Path 6" d="M173.745,111.015H134a1.375,1.375,0,1,1,0-2.75h39.744a1.375,1.375,0,0,1,0,2.75Z" transform="translate(-110.202 -65.377)" fill="#f2f2f2"/>
        <path id="Path_7" data-name="Path 7" d="M173.745,140.338H134a1.375,1.375,0,0,1,0-2.75h39.744a1.375,1.375,0,0,1,0,2.75Z" transform="translate(-110.202 -65.377)" fill="#f2f2f2"/>
        <path id="Path_8" data-name="Path 8" d="M189.884,125.686H117.861a1.375,1.375,0,1,1,0-2.75h72.023a1.375,1.375,0,0,1,0,2.75Z" transform="translate(-110.202 -65.377)" fill="#f2f2f2"/>
        <path id="Path_9" data-name="Path 9" d="M122.762,56.365l-7.175,15.285,27.6-2.8-5.761-14.674Z" fill="#a0616a"/>
        <path id="Path_10" data-name="Path 10" d="M129.178,144.22l-2.617-.022L125.4,133.869l3.862.033Z" fill="#a0616a"/>
        <path id="Path_11" data-name="Path 11" d="M231,213.758a1.172,1.172,0,0,0,1.16,1.18l5.2.043.911-1.846.335,1.856,1.963.018-.5-6.619-.683-.045-2.786-.192-.9-.06-.016,1.873-4.179,2.835A1.17,1.17,0,0,0,231,213.758Z" transform="translate(-110.202 -65.377)" fill="#2f2e41"/>
        <path id="Path_12" data-name="Path 12" d="M100.219,144.232l-2.495-.79,1.928-10.213,3.682,1.166Z" fill="#a0616a"/>
        <path id="Path_13" data-name="Path 13" d="M201.186,211.124a1.172,1.172,0,0,0,.762,1.469l4.96,1.57,1.413-1.5-.225,1.872,1.871.594,1.471-6.472-.64-.244-2.607-1-.841-.322-.565,1.785-4.828,1.482a1.169,1.169,0,0,0-.771.765Z" transform="translate(-110.202 -65.377)" fill="#2f2e41"/>
        <path id="Path_14" data-name="Path 14" d="M252.132,129.934l-25.1,4.6s-4.025,3.011-2.948,4.089,1.244.911.536,1.619-2.237,1.653-2.252,2.272-11.245,28.382-11.245,28.382,1.248-.624.312.312a2.705,2.705,0,0,0-.936,1.709L206.136,202.4l7.093.418,6.945-26.882,15.491-25.113s1.537,22.394,1.6,23.884,1-.382.064,1.489-1.56.624-.936,1.872-2.247,26.651-2.247,26.651h6.474l13.885-52.654S259.446,137.013,252.132,129.934Z" transform="translate(-110.202 -65.377)" fill="#2f2e41"/>
        <path id="Path_15" data-name="Path 15" d="M244.739,87.817l-10.052-1.044-2.6,3.381-3.034,1.616a7.572,7.572,0,0,0-4,7.163l3.546,20.626s-3,6.744-.936,8.423-1.592,5.836,2.808,3.743,23.4.312,23.4.312l-4.055-11.542,3.029-11.342.333-9.51a8.056,8.056,0,0,0-5.721-7.994l-.424-.128Z" transform="translate(-110.202 -65.377)" fill="#3268b8"/>
        <path id="Path_16" data-name="Path 16" d="M258.579,80.11a14.549,14.549,0,0,1-2.514,7.987,15.152,15.152,0,0,0-2.112-3.908,12.164,12.164,0,0,1-1.295,7.7,1.629,1.629,0,0,1-.139.089,4.775,4.775,0,0,1-4.153.509,9.315,9.315,0,0,0,.8-11.288,14.2,14.2,0,0,1-1.916-2.874c-.643-1.726-.025-3.627.365-5.427.365-1.675.429-3.669-.7-4.9a1.181,1.181,0,0,1,1.083-.5,2.234,2.234,0,0,1,1.519,1.321,9.634,9.634,0,0,0,.981,1.844c.829,1,2.241,1.24,3.431,1.769C256.815,73.723,258.509,76.957,258.579,80.11Z" transform="translate(-110.202 -65.377)" fill="#2f2e41"/>
        <path id="Path_17" data-name="Path 17" d="M184.337,215.006a.37.37,0,0,0,.371.371h79.014a.371.371,0,1,0,0-.742H184.708a.37.37,0,0,0-.371.371Z" transform="translate(-110.202 -65.377)" fill="#ccc"/>
        <circle id="Ellipse_1" data-name="Ellipse 1" cx="2.808" cy="2.808" r="2.808" transform="translate(146.191 74.789)" fill="#3268b8"/>
        <path id="Path_18" data-name="Path 18" d="M234.322,78.49c.165-.576-.97,2.947-.423,3.01,2.495.286,5.919,1.776,7.656,2.471.078-.009.156-.018.232-.03.186-.02.368-.05.548-.084,4.046-.766,5.6-6.98,5.6-7.037,0-.279-.671-7.953-1.727-8.066a7.783,7.783,0,0,0-.835-.045h-2.621a12.182,12.182,0,0,0-1.645-.238h0c-5.277-.4-9.437,2.814-9.048,6.728,0,0,.007.009.009.014.113.168.212.327.3.479s.156.279.219.409c.481,1-.755,2.257.064,2.492,1.09.312-2.868,10.573,1.448,10.573C232,89.762,233.868,80.08,234.322,78.49Z" transform="translate(-110.202 -65.377)" fill="#2f2e41"/>
        <circle id="Ellipse_2" data-name="Ellipse 2" cx="6.206" cy="6.206" r="6.206" transform="translate(122.625 6.722)" fill="#a0616a"/>
        <path id="Path_19" data-name="Path 19" d="M232.056,75.537c.1.055.2.1.308.154s.216.1.324.152c2.078.943,3.769,1.047,4.8-.307a5.738,5.738,0,0,1,.472-2.067,3.322,3.322,0,0,0,.548,2.067h2.066c2.129,1.413,3.222,1.56,1.744,6.2-.412,1.292-2.05,8.813-1.405,9.928.186-.02,2.169-8.258,2.349-8.292,4.046-.765,6.616-7.431,6.287-7.808a6.949,6.949,0,0,0-.72-3.091,7.11,7.11,0,0,0-2.7-2.939,12.528,12.528,0,0,0-2.159-.811l-.053-.014c-.228-.061-.46-.118-.693-.166a12.742,12.742,0,0,0-1.454-.22c-.035,0-.069,0-.1,0a1.1,1.1,0,0,0-.555.152s0,0,0,0a1.044,1.044,0,0,0-.308.275,1.056,1.056,0,0,0-.226.656h-2.3q-.128,0-.255.007a6.17,6.17,0,0,0-5.949,5.8C232.058,75.322,232.056,75.429,232.056,75.537Z" transform="translate(-110.202 -65.377)" fill="#2f2e41"/>
        <circle id="Ellipse_3" data-name="Ellipse 3" cx="4.088" cy="4.088" r="4.088" transform="translate(131.334 0)" fill="#2f2e41"/>
        <path id="Path_20" data-name="Path 20" d="M259.232,144.131a2.572,2.572,0,0,0-1.159-3.742l.02-12.822-3.545-.878.087,15.229a2.569,2.569,0,0,0,4.6,2.213Z" transform="translate(-110.202 -65.377)" fill="#a0616a"/>
        <path id="Path_21" data-name="Path 21" d="M241.677,97.033l5.517-3.749a2.232,2.232,0,0,1,3.212.775l9.484,17.331.036,25.365-5.921-.371-2.431-20.941Z" transform="translate(-110.202 -65.377)" fill="#3268b8"/>
        <path id="Path_22" data-name="Path 22" d="M199.309,154.556H140.35a4.835,4.835,0,0,0,0,9.67h58.958a4.835,4.835,0,0,0,0-9.67Z" transform="translate(-110.202 -65.377)" fill="#fff"/>
        <path id="Path_23" data-name="Path 23" d="M199.309,164.538H140.35a5.147,5.147,0,1,1,0-10.294h58.958a5.147,5.147,0,1,1,0,10.294Zm-58.958-9.67a4.523,4.523,0,0,0,0,9.047h58.958a4.523,4.523,0,0,0,0-9.047Z" transform="translate(-110.202 -65.377)" fill="#3268b8"/>
        <path id="Path_24" data-name="Path 24" d="M202.785,175.657H176.767a1.375,1.375,0,1,1,0-2.75h26.019a1.375,1.375,0,0,1,0,2.75Z" transform="translate(-110.202 -65.377)" fill="#3268b8"/>
      </g>
    </g>
    <text id="Imate_nalog_Prijavite_se." data-name="Imate nalog? Prijavite se." transform="translate(81 657)" font-size="16" font-family="Poppins-Regular, Poppins"><tspan x="0" y="0">Imate nalog? </tspan><tspan y="0" fill="#3268b8" text-decoration="underline">Prijavite se</tspan><tspan y="0">.</tspan></text>
    <rect id="Rectangle_1" data-name="Rectangle 1" width="222" height="35" transform="translate(68.75 385)" fill="#fff"/>
    <rect id="Rectangle_2" data-name="Rectangle 2" width="222" height="35" transform="translate(68.75 430)" fill="#fff"/>
    <rect id="Rectangle_3" data-name="Rectangle 3" width="222" height="35" transform="translate(68.75 475)" fill="#fff"/>
    <g id="Group_3" data-name="Group 3" transform="translate(2.25 42)">
      <g id="Rectangle_4" data-name="Rectangle 4" transform="translate(101.75 493)" fill="#3268b8" stroke="#3268b8" stroke-width="1">
        <rect width="152" height="35" rx="2" stroke="none"/>
        <rect x="0.5" y="0.5" width="151" height="34" rx="1.5" fill="none"/>
      </g>
      <text id="Registrujte_se" data-name="Registrujte se" transform="translate(123.75 516)" fill="#fff" font-size="16" font-family="Poppins-Regular, Poppins"><tspan x="0" y="0">Registrujte se</tspan></text>
    </g>
    <line id="Line_3" data-name="Line 3" x2="222" transform="translate(69.25 420.5)" fill="none" stroke="#707070" stroke-width="1"/>
    <line id="Line_4" data-name="Line 4" x2="222" transform="translate(68.75 465)" fill="none" stroke="#707070" stroke-width="1"/>
    <line id="Line_5" data-name="Line 5" x2="222" transform="translate(68.75 510)" fill="none" stroke="#707070" stroke-width="1"/>
    <text id="ime" transform="translate(80.75 409)" fill="#aaa" font-size="16" font-family="Poppins-Regular, Poppins"><tspan x="0" y="0">ime</tspan></text>
    <text id="mejl" transform="translate(80.75 453)" fill="#aaa" font-size="16" font-family="Poppins-Regular, Poppins"><tspan x="0" y="0">mejl</tspan></text>
    <text id="sifra" transform="translate(82.75 498)" fill="#aaa" font-size="16" font-family="Poppins-Regular, Poppins"><tspan x="0" y="0">sifra</tspan></text>
  </g>
</svg>
